tka_passive_flex_60_states
version=1
nRows=8
nColumns=27
inDegrees=yes

# SIMM Motion File Header:
name tka_passive_flex_60_states
datacolumns 27
datarows 8
otherdata 1
range 0.54522924 0.55571588
endheader
time	ground_r1	ground_r2	ground_r3	ground_tx	ground_ty	ground_tz	knee_flex_r	knee_add_r	knee_rot_r	knee_tx_r	knee_ty_r	knee_tz_r	knee_angle_r_beta	ground_r1_u	ground_r2_u	ground_r3_u	ground_tx_u	ground_ty_u	ground_tz_u	knee_flex_r_u	knee_add_r_u	knee_rot_r_u	knee_tx_r_u	knee_ty_r_u	knee_tz_r_u	knee_angle_r_beta_u
      0.54522924	      0.00000000	     -0.00000000	      0.00000000	     -0.00000000	      0.96900000	     -0.00000000	      1.23038222	     -2.05503636	     -0.84217111	     -0.00323388	      0.00817089	     -0.00888600	      1.23038222	      0.00000000	      0.00000000	     -0.00000000	      0.00000000	     -0.00000000	     -0.00000000	     41.60805351	     -0.28236408	     -1.38494057	     -0.00103178	     -0.00204053	     -0.00140120	     41.60805351
      0.54666014	      0.00000000	     -0.00000000	      0.00000000	     -0.00000000	      0.96900000	     -0.00000000	      1.29049751	     -2.05554062	     -0.84414939	     -0.00323553	      0.00816329	     -0.00888837	      1.29049751	      0.00000000	      0.00000000	     -0.00000000	      0.00000000	     -0.00000000	     -0.00000000	     42.41473659	     -0.27775026	     -1.41836592	     -0.00043514	     -0.00346364	     -0.00139395	     42.41473659
      0.54809104	      0.00000000	     -0.00000000	      0.00000000	     -0.00000000	      0.96900000	     -0.00000000	      1.35176029	     -2.05553774	     -0.84632571	     -0.00323331	      0.00817189	     -0.00888890	      1.35176029	      0.00000000	      0.00000000	     -0.00000000	      0.00000000	     -0.00000000	     -0.00000000	     43.21192014	      0.28869465	     -1.62200584	      0.00362546	      0.01593019	      0.00068673	     43.21192014
      0.54961601	      0.00000000	     -0.00000000	      0.00000000	     -0.00000000	      0.96900000	     -0.00000000	      1.41829827	     -2.05491190	     -0.84884693	     -0.00322604	      0.00820272	     -0.00888715	      1.41829827	      0.00000000	      0.00000000	     -0.00000000	      0.00000000	     -0.00000000	     -0.00000000	     44.05105314	      0.38400385	     -1.63415039	      0.00499410	      0.01913892	      0.00107874	     44.05105314
      0.55114098	      0.00000000	     -0.00000000	      0.00000000	     -0.00000000	      0.96900000	     -0.00000000	      1.48610767	     -2.05473037	     -0.85120264	     -0.00322044	      0.00821652	     -0.00888694	      1.48610767	      0.00000000	      0.00000000	     -0.00000000	      0.00000000	     -0.00000000	      0.00000000	     44.87939659	     -0.14137119	     -1.45864107	      0.00230197	     -0.00121063	     -0.00078682	     44.87939659
      0.55266595	      0.00000000	     -0.00000000	      0.00000000	     -0.00000000	      0.96900000	     -0.00000000	      1.55517205	     -2.05500185	     -0.85341572	     -0.00321713	      0.00821038	     -0.00888829	      1.55517205	      0.00000000	      0.00000000	     -0.00000000	      0.00000000	     -0.00000000	     -0.00000000	     45.69695047	     -0.07594608	     -1.49392827	      0.00289999	     -0.00180203	     -0.00048155	     45.69695047
      0.55419092	      0.00000000	     -0.00000000	      0.00000000	     -0.00000000	      0.96900000	     -0.00000000	      1.62547494	     -2.05470390	     -0.85585827	     -0.00320974	      0.00822181	     -0.00888745	      1.62547494	      0.00000000	      0.00000000	     -0.00000000	      0.00000000	     -0.00000000	     -0.00000000	     46.50371480	      0.44945116	     -1.69513438	      0.00676285	      0.01671792	      0.00153425	     46.50371480
      0.55571588	      0.00000000	     -0.00000000	      0.00000000	     -0.00000000	      0.96900000	     -0.00000000	      1.69699989	     -2.05394717	     -0.85842826	     -0.00319827	      0.00825136	     -0.00888475	      1.69699989	      0.00000000	      0.00000000	     -0.00000000	      0.00000000	     -0.00000000	     -0.00000000	     47.29968956	      0.40203754	     -1.62413242	      0.00743238	      0.01723594	      0.00149052	     47.29968956
